<svg width="14" height="26" viewBox="0 0 14 26" fill="none" xmlns="http://www.w3.org/2000/svg">
<path d="M0.536865 25.4312C-0.178955 24.6695 -0.178955 23.4322 0.536865 22.6706L10.884 11.6609C11.5968 10.9024 12.7503 10.9024 13.4631 11.6609C14.179 12.4225 14.179 13.6598 13.4631 14.4215L3.11598 25.4312C2.40316 26.1896 1.24969 26.1896 0.536865 25.4312Z" fill="#083A66"/>
<path d="M0.541022 0.568837C1.25219 -0.187868 2.40242 -0.189861 3.11589 0.564374L13.4547 11.4939C14.1745 12.2548 14.1764 13.4956 13.4589 14.259C12.7478 15.0157 11.5975 15.0177 10.8841 14.2634L0.545227 3.33385C-0.174544 2.57295 -0.176429 1.33223 0.541022 0.568837Z" fill="#083A66"/>
</svg>
