<svg width="12" height="12" viewBox="0 0 12 12" fill="none" xmlns="http://www.w3.org/2000/svg">
<path fill-rule="evenodd" clip-rule="evenodd" d="M1.72152 0.295367C1.3277 -0.0984558 0.68919 -0.0984555 0.295367 0.295367C-0.0984556 0.68919 -0.0984556 1.3277 0.295367 1.72153L4.57386 6.00002L0.295409 10.2785C-0.0984137 10.6723 -0.0984137 11.3108 0.295409 11.7046C0.689232 12.0985 1.32774 12.0985 1.72157 11.7046L6.00002 7.42618L10.2785 11.7046C10.6723 12.0985 11.3108 12.0985 11.7046 11.7046C12.0985 11.3108 12.0985 10.6723 11.7046 10.2785L7.42618 6.00002L11.7047 1.72153C12.0985 1.3277 12.0985 0.68919 11.7047 0.295367C11.3109 -0.0984555 10.6723 -0.0984558 10.2785 0.295367L6.00002 4.57386L1.72152 0.295367Z" fill="#FF8B8B"/>
</svg>
