<svg width="18" height="12" viewBox="0 0 18 12" fill="none" xmlns="http://www.w3.org/2000/svg">
<path d="M0.745824 3.74928C1.15982 3.33405 1.83236 3.33405 2.24635 3.74928L8.23071 9.75142C8.64298 10.1649 8.64298 10.834 8.23071 11.2475V11.2475C7.81671 11.6627 7.14418 11.6627 6.73018 11.2475L0.745823 5.24536C0.333558 4.83187 0.333559 4.16277 0.745824 3.74928V3.74928Z" fill="#94FF8B"/>
<path d="M17.2556 0.753917C17.6673 1.16685 17.6679 1.83486 17.257 2.24857L8.32146 11.2447C7.90769 11.6612 7.23407 11.6619 6.81952 11.2461V11.2461C6.40781 10.8332 6.40718 10.1651 6.81811 9.75143L15.7537 0.755339C16.1674 0.338773 16.841 0.338135 17.2556 0.753917V0.753917Z" fill="#94FF8B"/>
</svg>
