<svg width="14" height="26" viewBox="0 0 14 26" fill="none" xmlns="http://www.w3.org/2000/svg">
<path d="M13.4631 0.568847C14.179 1.3305 14.179 2.56779 13.4631 3.32944L3.11598 14.3391C2.40316 15.0976 1.24969 15.0976 0.536866 14.3391C-0.178954 13.5775 -0.178954 12.3402 0.536866 11.5785L10.884 0.568846C11.5968 -0.189617 12.7503 -0.189615 13.4631 0.568847Z" fill="#083A66"/>
<path d="M13.459 25.4312C12.7478 26.1879 11.5976 26.1899 10.8841 25.4356L0.54528 14.5061C-0.174492 13.7452 -0.176382 12.5044 0.541069 11.741C1.25224 10.9843 2.40246 10.9823 3.11593 11.7366L13.4548 22.6662C14.1745 23.427 14.1764 24.6678 13.459 25.4312Z" fill="#083A66"/>
</svg>
