<svg width="52" height="15" viewBox="0 0 52 15" fill="none" xmlns="http://www.w3.org/2000/svg">
<path fill-rule="evenodd" clip-rule="evenodd" d="M6.65685 14.435L0.292892 8.07108C-0.0976315 7.68056 -0.0976315 7.04739 0.292892 6.65687L6.65685 0.292907C7.04738 -0.0976176 7.68054 -0.0976176 8.07107 0.292907C8.46159 0.683431 8.46159 1.3166 8.07107 1.70712L3.41421 6.36397L21 6.36397V8.36397L3.41421 8.36397L8.07107 13.0208C8.46159 13.4114 8.46159 14.0445 8.07107 14.435C7.68054 14.8256 7.04738 14.8256 6.65685 14.435Z" fill="#F2F9FF"/>
<path fill-rule="evenodd" clip-rule="evenodd" d="M45.3431 0.292895L51.7071 6.65686C52.0976 7.04738 52.0976 7.68055 51.7071 8.07107L45.3431 14.435C44.9526 14.8256 44.3195 14.8256 43.9289 14.435C43.5384 14.0445 43.5384 13.4113 43.9289 13.0208L48.5858 8.36396L31 8.36396L31 6.36396L48.5858 6.36396L43.9289 1.70711C43.5384 1.31658 43.5384 0.683419 43.9289 0.292894C44.3195 -0.0976299 44.9526 -0.0976299 45.3431 0.292895Z" fill="#F2F9FF"/>
</svg>
